PathFileType	4	(X/Y/Z)	pose_F01_0-96.trc
DataRate	CameraRate	NumFrames	NumMarkers	Units	OrigDataRate	OrigDataStartFrame	OrigNumFrames
30	30	8	21	m	30	72	96
Frame#	Time	CHip			RHip			RKnee			RAnkle			RBigToe			RSmallToe			RHeel			LHip			LKnee			LAnkle			LBigToe			LSmallToe			LHeel			Neck			Nose			RShoulder			RElbow			RWrist			LShoulder			LElbow			LWrist			
		X1	Y1	Z1	X2	Y2	Z2	X3	Y3	Z3	X4	Y4	Z4	X5	Y5	Z5	X6	Y6	Z6	X7	Y7	Z7	X8	Y8	Z8	X9	Y9	Z9	X10	Y10	Z10	X11	Y11	Z11	X12	Y12	Z12	X13	Y13	Z13	X14	Y14	Z14	X15	Y15	Z15	X16	Y16	Z16	X17	Y17	Z17	X18	Y18	Z18	X19	Y19	Z19	X20	Y20	Z20	X21	Y21	Z21	
72	2.4	-0.22704411788162815	1.8404539963644473	-0.4390166054276869	-0.23294089561970588	1.8387249167841029	-0.3730440152091046	-0.23169651602047797	1.7047628223851883	-0.35957507470963446	-0.22177561533781207	1.584082749346375	-0.3586811839973604	-0.24468594867935997	1.5779836981241064	-0.32824288865494033	-0.24231096407860958	1.5869471271135	-0.3080219138096715	-0.21723182823893236	1.5739450187923993	-0.36976925054986787	-0.21801323428188268	1.8420445190433243	-0.49832132540837837	-0.22739311887500302	1.707167780022394	-0.4659733773860258	-0.20478900458094704	1.5797056593020768	-0.4758386820141644	-0.22913363907285714	1.5478650284541247	-0.45550668319686327	-0.22372087322507792	1.5492169503661541	-0.4879688235051312	-0.19517859337613358	1.572425722417053	-0.4759934513764314	-0.21246664199304424	1.9916568023985821	-0.47350586358725755	-0.22956961596010597	2.0515239420109994	-0.45991947766636804	-0.22066687144268704	1.9855947345155445	-0.3805745608685297	-0.22947783174244693	1.951125804964988	-0.2432210831561869	-0.22610432343218398	2.0038092245936916	-0.21978243277561194	-0.20110315268432893	1.9970652588112392	-0.5627460977404143	-0.20032601462906402	1.9543203907064108	-0.6542336246837598	-0.20386906841303817	1.9942590503235207	-0.6283437812254451
73	2.433333333333333	-0.2288035941359601	1.8349985540837703	-0.4358321877294295	-0.23343324688006775	1.8342825479424179	-0.36687632888507365	-0.23418960598146998	1.6996106506037723	-0.3513925774701723	-0.22120114266889937	1.5825061001859018	-0.36203727441880357	-0.24468594867935997	1.5779836981241064	-0.32824288865494033	-0.24231096407860958	1.5869471271135	-0.3080219138096715	-0.2168754970047592	1.572449864125397	-0.3698543047209416	-0.21986796912040812	1.8365404933698508	-0.49519120363319913	-0.2264208610254371	1.7071745555996605	-0.4715285581158058	-0.207752763225224	1.5825992003664473	-0.48128128546980625	-0.23579462589389172	1.5457354202746607	-0.4473975748358245	-0.22861530689296783	1.5471981178311265	-0.4819844651127377	-0.19829686717762107	1.5731114732392943	-0.4812332588935457	-0.20649918853255875	1.9897151950709568	-0.47983031198033704	-0.22668232275909725	2.0518373496457114	-0.46739103971199775	-0.21700938324581162	1.9858759110422428	-0.39362942052670147	-0.213405403392059	1.9478908032402298	-0.28943499003203854	-0.22005329036888663	1.9923426877917298	-0.2567743974688652	-0.1919152931311958	1.994675206706215	-0.5682455280752071	-1.4772492971147222	1.881904382465966	0.6949324609164871	-0.1992010133524178	2.033553632515439	-0.6552617788590478
74	2.466666666666667	-0.2245744063552698	1.838844112906183	-0.4409833391493823	-0.23146532550509286	1.8370075573729459	-0.3695657370475245	-0.239804224028148	1.701629674681919	-0.3452312977893972	-0.2206266699999867	1.5809294510254288	-0.3653933648402467	-0.24468594867935997	1.5779836981241064	-0.32824288865494033	-0.24231096407860958	1.5869471271135	-0.3080219138096715	-0.21417053774714812	1.57333284728763	-0.3752128785885903	-0.21164817410278317	1.8382667672389432	-0.5043339984318977	-0.2200006944316432	1.704493516405018	-0.47819677310392417	-0.20792577292203177	1.574203843719665	-0.4852359315178385	-0.23518669458509964	1.541507882786976	-0.4483657613038598	-0.22924572583099123	1.541659273007339	-0.48546345691078563	-0.19864417817241709	1.5656024619835007	-0.4852473300230083	-0.20628851566674494	1.9896694898635208	-0.48802961152231167	-0.22572379254229608	2.049741281929852	-0.4724377943202745	-0.21518177756128987	1.982484492586003	-0.4036079174333909	-0.21472743431087224	1.916315424529683	-0.31914199039245617	-0.23877366059031654	1.964102160417067	-0.33539786832807	-0.19464881860114075	1.9976038643041802	-0.5781603407314133	-0.1882015965395641	2.007103234869368	-0.6853408225275495	-0.1945329582917974	2.0728482147073577	-0.6821797764926506
75	2.5	-0.22191586029882107	1.8350977410302856	-0.44807987607784633	-0.23078968329420813	1.8333432542203056	-0.3745069112859735	-0.2352518935282647	1.702029919093363	-0.35512901423201265	-0.220052197331074	1.5793528018649556	-0.3687494552616899	-0.24468594867935997	1.5779836981241064	-0.32824288865494033	-0.24231096407860958	1.5869471271135	-0.3080219138096715	-0.21146557848953704	1.5742158304498632	-0.380571452456239	-0.21270806957051538	1.8368928650046557	-0.507574458982759	-0.2160257276660461	1.7062694918625645	-0.4827896872643196	-0.2095027175593867	1.574064950101817	-0.4839431914043388	-0.23866317605451648	1.5406633347521235	-0.4490029314073358	-0.23134694548088722	1.5417294807611497	-0.48337923954255896	-0.20058670964084116	1.5648833644907039	-0.4833679694910303	-0.2053630105198753	1.992662137375224	-0.4943938361592893	-0.22660828228893884	2.0495739938248754	-0.4749042526558872	-0.2161072048714304	1.985616388186907	-0.4074857135902246	-0.22506207080508417	1.9307000060116994	-0.30844971451222764	-0.24553624274282695	1.9593028419383902	-0.286703095197095	-0.19441439421928278	2.001887380669658	-0.5880561469854609	-0.18784591398224573	2.0131864522396015	-0.7049675726292841	-0.19338469367734634	2.0816266519616926	-0.7102610384774061
76	2.533333333333333	-0.21961920098482177	1.8397527180132478	-0.45132855040595343	-0.22930387476038797	1.8376061385961067	-0.3808675499378468	-0.22673821850619308	1.7047226298167337	-0.3789769752696955	-0.21947772466216134	1.5777761527044827	-0.37210554568313303	-0.24468594867935997	1.5779836981241064	-0.32824288865494033	-0.24231096407860958	1.5869471271135	-0.3080219138096715	-0.21410753723613277	1.5685311880535624	-0.38642384041589156	-0.21210601325445894	1.8405339610883056	-0.5169035036419335	-0.21281164246752404	1.7080781236931064	-0.49101512790146307	-0.21025920379990126	1.575582501815479	-0.48267285309366575	-0.23719871932582137	1.5435156519043893	-0.45081046581291867	-0.23181489547179288	1.5441657176995047	-0.4830880546694339	-0.20123082275899562	1.5658475409499186	-0.4820902271878189	-0.2062707017368185	1.99218276178139	-0.48862160828115364	-0.22853746075573228	2.0520950779747587	-0.4737521864314185	-0.22071171819347707	1.9847743850570823	-0.39707946092384705	-0.23255443581894827	1.9558504064371525	-0.26964492863943723	-0.24041100819071584	1.9929529660829273	-0.22170049262908587	-0.19139798968645597	2.0019663390303335	-0.5872414338033719	-0.18567760332297994	1.975148564671883	-0.682019487015225	-0.1938052058809331	2.034770354742019	-0.6813279227169651
77	2.566666666666667	-0.22144934023815532	1.8452949792227529	-0.45552828674697987	-0.2316571080665149	1.843657543486852	-0.3941068048949973	-0.22543227160362	1.7058678598785963	-0.3898769188495379	-0.2199354326597705	1.5787782031355981	-0.3739943463693346	-0.24468594867935997	1.5779836981241064	-0.32824288865494033	-0.24231096407860958	1.5869471271135	-0.3080219138096715	-0.21488334919507557	1.5693283227650905	-0.3903531143076524	-0.21413212534539716	1.8482364580100192	-0.5212388000600201	-0.21161552136256548	1.7096420131987755	-0.49238009325318566	-0.21128934900830112	1.5755400085981748	-0.4772094154675464	-0.23692181525606518	1.542269745493149	-0.45077062182928185	-0.2316480522225221	1.5434331330758106	-0.4830420676071312	-0.20232422471562878	1.5659659055832522	-0.47656602085039823	-0.20737808108292372	1.9947139864990338	-0.48398973786526595	-0.22754844630901747	2.053078686651282	-0.4705327160497945	-0.22044058438616979	1.99134895268079	-0.38982541222108275	-2.308557658114971	1.9233110658916797	2.2757008677931165	-0.2394251551108668	1.9945635045786927	-0.224207383207239	-0.19369776911155787	2.000217932158472	-0.5759224082945774	-0.18350929266371419	1.9371106771041642	-0.6590714014011659	-0.19422571808451988	1.9879140575223448	-0.6523948069565242
78	2.6	-0.2212420468684382	1.8424431322807882	-0.4547639214761821	-0.2322718910105942	1.840613309779554	-0.3878612458917996	-0.2253031224224372	1.7113085575268245	-0.39073254092133597	-0.22039314065737967	1.5797802535667136	-0.3758831470555362	-0.24468594867935997	1.5779836981241064	-0.32824288865494033	-0.24231096407860958	1.5869471271135	-0.3080219138096715	-0.2150510072882869	1.5708325540558485	-0.38984710221092955	-0.21300347805436043	1.8454373066891423	-0.5175067109574594	-0.2115682531694295	1.7123849907938506	-0.49282370275757337	-0.21149600656435816	1.5770033671492585	-0.47695483008982387	-0.2389700657417413	1.542454757803009	-0.44852111716454646	-0.2337613474657351	1.5436922553610992	-0.48081571497436937	-0.20261503475983297	1.5681577302193506	-0.4760558451307288	-0.20935431884808597	1.9958073600776336	-0.48209676576067206	-0.2276749329551171	2.0531520633172375	-0.4710915672466963	-0.21947992986587536	1.9941536202691537	-0.38750429772300743	-2.314779700589714	1.9373083332050538	2.284466039297911	-0.23843930203101774	1.996174043074458	-0.22671427378539216	-0.19375845894453192	1.9976506048622407	-0.5753963336982452	-0.18417327410015244	1.9243151092521282	-0.6393037756846317	-0.1832561606220218	1.9849278371653265	-0.6515835997438555
79	2.6333333333333333	-0.21944945394544269	1.8481307235058184	-0.45248817879177544	-0.22932420808813833	1.8448868940090384	-0.3820254374642488	-0.22265404638066189	1.7098929513036867	-0.3843922677879844	-0.22029372228503658	1.5793683295346619	-0.3758893910124385	-0.24468594867935997	1.5779836981241064	-0.32824288865494033	-0.24231096407860958	1.5869471271135	-0.3080219138096715	-0.21514212430397822	1.5713327110665072	-0.38987937159964825	-0.2112539481136071	1.848955645525791	-0.514764351496727	-0.21073684325564013	1.7114844679761885	-0.493497877122974	-0.21016578890780604	1.5754016575838903	-0.4738638416804614	-0.2379392893456659	1.5426141241805649	-0.44529850866873577	-0.23274081919202919	1.5438124426393516	-0.47764977704123723	-0.20145481608777294	1.5673313304311578	-0.47288530365195763	-0.20631462176876136	1.9955871075901093	-0.48070693576374707	-0.22670960591711287	2.052928161777098	-0.46813311884101966	-0.21757456752524926	1.9942633329337869	-0.38972651114825063	-2.309415900728129	1.9358683032132031	2.277317475191677	-0.23745344895116868	1.9977845815702233	-0.22922116436354528	-0.19072409710516464	1.997445413085126	-0.5739741760119832	-0.17688314615584105	1.9253491764041009	-0.6340370548004717	-0.18369973534745557	1.9808675232339779	-0.652744253089196
